<svg version="1.1" class="highcharts-root"
                style="font-family:&quot;Lucida Grande&quot;, &quot;Lucida Sans Unicode&quot;, Arial, Helvetica, sans-serif;font-size:12px;"
                xmlns="http://www.w3.org/2000/svg" width="1177" height="300" viewBox="0 0 1177 300">
                <desc>Created with Highcharts 7.2.1</desc>
                <defs>
                    <clipPath id="highcharts-r42hcgw-143-">
                        <rect x="0" y="0" width="1177" height="300" fill="none"></rect>
                    </clipPath>
                </defs>
                <rect fill="#ffffff" class="highcharts-background" x="0" y="0" width="1177" height="300" rx="0" ry="0">
                </rect>
                <rect fill="none" class="highcharts-plot-background" x="0" y="0" width="1177" height="300"></rect>
                <g class="highcharts-grid highcharts-xaxis-grid" data-z-index="1">
                    <path fill="none" data-z-index="1" class="highcharts-grid-line" d="M 38.5 0 L 38.5 300" opacity="1">
                    </path>
                    <path fill="none" data-z-index="1" class="highcharts-grid-line" d="M 77.5 0 L 77.5 300" opacity="1">
                    </path>
                    <path fill="none" data-z-index="1" class="highcharts-grid-line" d="M 117.5 0 L 117.5 300"
                        opacity="1"></path>
                    <path fill="none" data-z-index="1" class="highcharts-grid-line" d="M 156.5 0 L 156.5 300"
                        opacity="1"></path>
                    <path fill="none" data-z-index="1" class="highcharts-grid-line" d="M 195.5 0 L 195.5 300"
                        opacity="1"></path>
                    <path fill="none" data-z-index="1" class="highcharts-grid-line" d="M 234.5 0 L 234.5 300"
                        opacity="1"></path>
                    <path fill="none" data-z-index="1" class="highcharts-grid-line" d="M 274.5 0 L 274.5 300"
                        opacity="1">

                    </path>
                    <path fill="none" data-z-index="1" class="highcharts-grid-line" d="M 313.5 0 L 313.5 300"
                        opacity="1"></path>
                    <path fill="none" data-z-index="1" class="highcharts-grid-line" d="M 352.5 0 L 352.5 300"
                        opacity="1"></path>
                    <path fill="none" data-z-index="1" class="highcharts-grid-line" d="M 391.5 0 L 391.5 300"
                        opacity="1"></path>
                    <path fill="none" data-z-index="1" class="highcharts-grid-line" d="M 431.5 0 L 431.5 300"
                        opacity="1"></path>
                    <path fill="none" data-z-index="1" class="highcharts-grid-line" d="M 470.5 0 L 470.5 300"
                        opacity="1"></path>
                    <path fill="none" data-z-index="1" class="highcharts-grid-line" d="M 509.5 0 L 509.5 300"
                        opacity="1"></path>
                    <path fill="none" data-z-index="1" class="highcharts-grid-line" d="M 548.5 0 L 548.5 300"
                        opacity="1"></path>
                    <path fill="none" data-z-index="1" class="highcharts-grid-line" d="M 588.5 0 L 588.5 300"
                        opacity="1"></path>
                    <path fill="none" data-z-index="1" class="highcharts-grid-line" d="M 627.5 0 L 627.5 300"
                        opacity="1"></path>
                    <path fill="none" data-z-index="1" class="highcharts-grid-line" d="M 666.5 0 L 666.5 300"
                        opacity="1"></path>
                    <path fill="none" data-z-index="1" class="highcharts-grid-line" d="M 705.5 0 L 705.5 300"
                        opacity="1"></path>
                    <path fill="none" data-z-index="1" class="highcharts-grid-line" d="M 744.5 0 L 744.5 300"
                        opacity="1"></path>
                    <path fill="none" data-z-index="1" class="highcharts-grid-line" d="M 784.5 0 L 784.5 300"
                        opacity="1"></path>
                    <path fill="none" data-z-index="1" class="highcharts-grid-line" d="M 823.5 0 L 823.5 300"
                        opacity="1"></path>
                    <path fill="none" data-z-index="1" class="highcharts-grid-line" d="M 862.5 0 L 862.5 300"
                        opacity="1"></path>
                    <path fill="none" data-z-index="1" class="highcharts-grid-line" d="M 901.5 0 L 901.5 300"
                        opacity="1"></path>
                    <path fill="none" data-z-index="1" class="highcharts-grid-line" d="M 941.5 0 L 941.5 300"
                        opacity="1"></path>
                    <path fill="none" data-z-index="1" class="highcharts-grid-line" d="M 980.5 0 L 980.5 300"
                        opacity="1"></path>
                    <path fill="none" data-z-index="1" class="highcharts-grid-line" d="M 1019.5 0 L 1019.5 300"
                        opacity="1"></path>
                    <path fill="none" data-z-index="1" class="highcharts-grid-line" d="M 1058.5 0 L 1058.5 300"
                        opacity="1"></path>
                    <path fill="none" data-z-index="1" class="highcharts-grid-line" d="M 1098.5 0 L 1098.5 300"
                        opacity="1"></path>
                    <path fill="none" data-z-index="1" class="highcharts-grid-line" d="M 1137.5 0 L 1137.5 300"
                        opacity="1"></path>
                    <path fill="none" data-z-index="1" class="highcharts-grid-line" d="M 1176.5 0 L 1176.5 300"
                        opacity="1"></path>
                    <path fill="none" data-z-index="1" class="highcharts-grid-line" d="M -0.5 0 L -0.5 300" opacity="1">
                    </path>
                </g>
                <rect fill="none" class="highcharts-plot-border" data-z-index="1" x="0" y="0" width="1177" height="300">
                </rect>
                <g class="highcharts-axis highcharts-xaxis" data-z-index="2">
                    <path fill="none" class="highcharts-axis-line" stroke="#ccd6eb" stroke-width="1" data-z-index="7"
                        d="M 0 300.5 L 1177 300.5"></path>
                </g>
                <g class="highcharts-series-group" data-z-index="3">
                    <g data-z-index="0.1"
                        class="highcharts-series highcharts-series-0 highcharts-area-series highcharts-series-hover"
                        transform="translate(0,0) scale(1 1)" clip-path="url(#highcharts-r42hcgw-143-)">
                        <path fill="rgba(0,191,255,0.1)"
                            d="M 19.616666666667 150 C 19.616666666667 150 43.1566666666668 150 58.85 150 C 74.54333333333321 150 82.38999999999979 150 98.083333333333 150 C 113.77666666666778 150 121.62333333333518 150 137.31666666667 150 C 153.01000000000198 150 160.85666666666802 150 176.55 150 C 192.24333333333203 150 200.089999999998 150 215.78333333333 150 C 231.476666666666 150 239.323333333334 150 255.01666666667 150 C 270.71000000000197 150 278.55666666666804 150 294.25 150 C 309.94333333333196 150 317.78999999999803 150 333.48333333333 150 C 349.176666666666 150 357.023333333334 150 372.71666666667 150 C 388.410000000002 150 396.25666666666797 150 411.95 150 C 427.64333333333195 150 435.48999999999796 150 451.18333333333 150 C 466.876666666666 150 474.723333333334 150 490.41666666667 150 C 506.11000000000206 150 513.956666666668 150 529.65 150 C 545.343333333332 150 553.189999999998 150 568.88333333333 150 C 584.576666666666 150 592.423333333334 150 608.11666666667 150 C 623.810000000002 150 631.656666666668 150 647.35 150 C 663.0433333333319 150 670.8899999999979 150 686.58333333333 150 C 702.276666666666 150 710.1233333333339 150 725.81666666667 150 C 741.5100000000019 150 749.3566666666679 150 765.05 150 C 780.743333333332 150 788.589999999998 150 804.28333333333 150 C 819.9766666666659 150 827.823333333334 150 843.51666666667 150 C 859.2100000000021 150 867.056666666668 150 882.75 150 C 898.443333333332 150 906.2899999999979 150 921.98333333333 150 C 937.676666666666 150 945.5233333333341 150 961.21666666667 150 C 976.910000000002 150 984.756666666668 150 1000.45 150 C 1016.14333333332 150 1023.9899999999801 150 1039.6833333333 150 C 1055.3766666666602 150 1063.22333333334 150 1078.9166666667 150 C 1094.6100000000201 150 1102.4566666666801 150 1118.15 150 C 1133.84333333332 150 1157.3833333333 150 1157.3833333333 150 L 1157.3833333333 150 C 1157.3833333333 150 1133.84333333332 150 1118.15 150 C 1102.4566666666801 150 1094.6100000000201 150 1078.9166666667 150 C 1063.22333333334 150 1055.3766666666602 150 1039.6833333333 150 C 1023.9899999999801 150 1016.14333333332 150 1000.45 150 C 984.756666666668 150 976.910000000002 150 961.21666666667 150 C 945.5233333333341 150 937.676666666666 150 921.98333333333 150 C 906.2899999999979 150 898.443333333332 150 882.75 150 C 867.056666666668 150 859.2100000000021 150 843.51666666667 150 C 827.823333333334 150 819.9766666666659 150 804.28333333333 150 C 788.589999999998 150 780.743333333332 150 765.05 150 C 749.3566666666679 150 741.5100000000019 150 725.81666666667 150 C 710.1233333333339 150 702.276666666666 150 686.58333333333 150 C 670.8899999999979 150 663.0433333333319 150 647.35 150 C 631.656666666668 150 623.810000000002 150 608.11666666667 150 C 592.423333333334 150 584.576666666666 150 568.88333333333 150 C 553.189999999998 150 545.343333333332 150 529.65 150 C 513.956666666668 150 506.11000000000206 150 490.41666666667 150 C 474.723333333334 150 466.876666666666 150 451.18333333333 150 C 435.48999999999796 150 427.64333333333195 150 411.95 150 C 396.25666666666797 150 388.410000000002 150 372.71666666667 150 C 357.023333333334 150 349.176666666666 150 333.48333333333 150 C 317.78999999999803 150 309.94333333333196 150 294.25 150 C 278.55666666666804 150 270.71000000000197 150 255.01666666667 150 C 239.323333333334 150 231.476666666666 150 215.78333333333 150 C 200.089999999998 150 192.24333333333203 150 176.55 150 C 160.85666666666802 150 153.01000000000198 150 137.31666666667 150 C 121.62333333333518 150 113.77666666666778 150 98.083333333333 150 C 82.38999999999979 150 74.54333333333321 150 58.85 150 C 43.1566666666668 150 19.616666666667 150 19.616666666667 150"
                            class="highcharts-area" data-z-index="0"></path>
                        <path fill="none"
                            d="M 19.616666666667 150 C 19.616666666667 150 43.1566666666668 150 58.85 150 C 74.54333333333321 150 82.38999999999979 150 98.083333333333 150 C 113.77666666666778 150 121.62333333333518 150 137.31666666667 150 C 153.01000000000198 150 160.85666666666802 150 176.55 150 C 192.24333333333203 150 200.089999999998 150 215.78333333333 150 C 231.476666666666 150 239.323333333334 150 255.01666666667 150 C 270.71000000000197 150 278.55666666666804 150 294.25 150 C 309.94333333333196 150 317.78999999999803 150 333.48333333333 150 C 349.176666666666 150 357.023333333334 150 372.71666666667 150 C 388.410000000002 150 396.25666666666797 150 411.95 150 C 427.64333333333195 150 435.48999999999796 150 451.18333333333 150 C 466.876666666666 150 474.723333333334 150 490.41666666667 150 C 506.11000000000206 150 513.956666666668 150 529.65 150 C 545.343333333332 150 553.189999999998 150 568.88333333333 150 C 584.576666666666 150 592.423333333334 150 608.11666666667 150 C 623.810000000002 150 631.656666666668 150 647.35 150 C 663.0433333333319 150 670.8899999999979 150 686.58333333333 150 C 702.276666666666 150 710.1233333333339 150 725.81666666667 150 C 741.5100000000019 150 749.3566666666679 150 765.05 150 C 780.743333333332 150 788.589999999998 150 804.28333333333 150 C 819.9766666666659 150 827.823333333334 150 843.51666666667 150 C 859.2100000000021 150 867.056666666668 150 882.75 150 C 898.443333333332 150 906.2899999999979 150 921.98333333333 150 C 937.676666666666 150 945.5233333333341 150 961.21666666667 150 C 976.910000000002 150 984.756666666668 150 1000.45 150 C 1016.14333333332 150 1023.9899999999801 150 1039.6833333333 150 C 1055.3766666666602 150 1063.22333333334 150 1078.9166666667 150 C 1094.6100000000201 150 1102.4566666666801 150 1118.15 150 C 1133.84333333332 150 1157.3833333333 150 1157.3833333333 150"
                            class="highcharts-graph highcharts-shadow" data-z-index="1" stroke="#0aaeff"
                            stroke-width="15" stroke-linejoin="round" stroke-linecap="round" stroke-opacity="0.00625"
                            transform="translate(1, 1)"></path>
                        <path fill="none"
                            d="M 19.616666666667 150 C 19.616666666667 150 43.1566666666668 150 58.85 150 C 74.54333333333321 150 82.38999999999979 150 98.083333333333 150 C 113.77666666666778 150 121.62333333333518 150 137.31666666667 150 C 153.01000000000198 150 160.85666666666802 150 176.55 150 C 192.24333333333203 150 200.089999999998 150 215.78333333333 150 C 231.476666666666 150 239.323333333334 150 255.01666666667 150 C 270.71000000000197 150 278.55666666666804 150 294.25 150 C 309.94333333333196 150 317.78999999999803 150 333.48333333333 150 C 349.176666666666 150 357.023333333334 150 372.71666666667 150 C 388.410000000002 150 396.25666666666797 150 411.95 150 C 427.64333333333195 150 435.48999999999796 150 451.18333333333 150 C 466.876666666666 150 474.723333333334 150 490.41666666667 150 C 506.11000000000206 150 513.956666666668 150 529.65 150 C 545.343333333332 150 553.189999999998 150 568.88333333333 150 C 584.576666666666 150 592.423333333334 150 608.11666666667 150 C 623.810000000002 150 631.656666666668 150 647.35 150 C 663.0433333333319 150 670.8899999999979 150 686.58333333333 150 C 702.276666666666 150 710.1233333333339 150 725.81666666667 150 C 741.5100000000019 150 749.3566666666679 150 765.05 150 C 780.743333333332 150 788.589999999998 150 804.28333333333 150 C 819.9766666666659 150 827.823333333334 150 843.51666666667 150 C 859.2100000000021 150 867.056666666668 150 882.75 150 C 898.443333333332 150 906.2899999999979 150 921.98333333333 150 C 937.676666666666 150 945.5233333333341 150 961.21666666667 150 C 976.910000000002 150 984.756666666668 150 1000.45 150 C 1016.14333333332 150 1023.9899999999801 150 1039.6833333333 150 C 1055.3766666666602 150 1063.22333333334 150 1078.9166666667 150 C 1094.6100000000201 150 1102.4566666666801 150 1118.15 150 C 1133.84333333332 150 1157.3833333333 150 1157.3833333333 150"
                            class="highcharts-graph highcharts-shadow" data-z-index="1" stroke="#0aaeff"
                            stroke-width="13" stroke-linejoin="round" stroke-linecap="round" stroke-opacity="0.0125"
                            transform="translate(1, 1)"></path>
                        <path fill="none"
                            d="M 19.616666666667 150 C 19.616666666667 150 43.1566666666668 150 58.85 150 C 74.54333333333321 150 82.38999999999979 150 98.083333333333 150 C 113.77666666666778 150 121.62333333333518 150 137.31666666667 150 C 153.01000000000198 150 160.85666666666802 150 176.55 150 C 192.24333333333203 150 200.089999999998 150 215.78333333333 150 C 231.476666666666 150 239.323333333334 150 255.01666666667 150 C 270.71000000000197 150 278.55666666666804 150 294.25 150 C 309.94333333333196 150 317.78999999999803 150 333.48333333333 150 C 349.176666666666 150 357.023333333334 150 372.71666666667 150 C 388.410000000002 150 396.25666666666797 150 411.95 150 C 427.64333333333195 150 435.48999999999796 150 451.18333333333 150 C 466.876666666666 150 474.723333333334 150 490.41666666667 150 C 506.11000000000206 150 513.956666666668 150 529.65 150 C 545.343333333332 150 553.189999999998 150 568.88333333333 150 C 584.576666666666 150 592.423333333334 150 608.11666666667 150 C 623.810000000002 150 631.656666666668 150 647.35 150 C 663.0433333333319 150 670.8899999999979 150 686.58333333333 150 C 702.276666666666 150 710.1233333333339 150 725.81666666667 150 C 741.5100000000019 150 749.3566666666679 150 765.05 150 C 780.743333333332 150 788.589999999998 150 804.28333333333 150 C 819.9766666666659 150 827.823333333334 150 843.51666666667 150 C 859.2100000000021 150 867.056666666668 150 882.75 150 C 898.443333333332 150 906.2899999999979 150 921.98333333333 150 C 937.676666666666 150 945.5233333333341 150 961.21666666667 150 C 976.910000000002 150 984.756666666668 150 1000.45 150 C 1016.14333333332 150 1023.9899999999801 150 1039.6833333333 150 C 1055.3766666666602 150 1063.22333333334 150 1078.9166666667 150 C 1094.6100000000201 150 1102.4566666666801 150 1118.15 150 C 1133.84333333332 150 1157.3833333333 150 1157.3833333333 150"
                            class="highcharts-graph highcharts-shadow" data-z-index="1" stroke="#0aaeff"
                            stroke-width="11" stroke-linejoin="round" stroke-linecap="round"
                            stroke-opacity="0.018750000000000003" transform="translate(1, 1)"></path>
                        <path fill="none"
                            d="M 19.616666666667 150 C 19.616666666667 150 43.1566666666668 150 58.85 150 C 74.54333333333321 150 82.38999999999979 150 98.083333333333 150 C 113.77666666666778 150 121.62333333333518 150 137.31666666667 150 C 153.01000000000198 150 160.85666666666802 150 176.55 150 C 192.24333333333203 150 200.089999999998 150 215.78333333333 150 C 231.476666666666 150 239.323333333334 150 255.01666666667 150 C 270.71000000000197 150 278.55666666666804 150 294.25 150 C 309.94333333333196 150 317.78999999999803 150 333.48333333333 150 C 349.176666666666 150 357.023333333334 150 372.71666666667 150 C 388.410000000002 150 396.25666666666797 150 411.95 150 C 427.64333333333195 150 435.48999999999796 150 451.18333333333 150 C 466.876666666666 150 474.723333333334 150 490.41666666667 150 C 506.11000000000206 150 513.956666666668 150 529.65 150 C 545.343333333332 150 553.189999999998 150 568.88333333333 150 C 584.576666666666 150 592.423333333334 150 608.11666666667 150 C 623.810000000002 150 631.656666666668 150 647.35 150 C 663.0433333333319 150 670.8899999999979 150 686.58333333333 150 C 702.276666666666 150 710.1233333333339 150 725.81666666667 150 C 741.5100000000019 150 749.3566666666679 150 765.05 150 C 780.743333333332 150 788.589999999998 150 804.28333333333 150 C 819.9766666666659 150 827.823333333334 150 843.51666666667 150 C 859.2100000000021 150 867.056666666668 150 882.75 150 C 898.443333333332 150 906.2899999999979 150 921.98333333333 150 C 937.676666666666 150 945.5233333333341 150 961.21666666667 150 C 976.910000000002 150 984.756666666668 150 1000.45 150 C 1016.14333333332 150 1023.9899999999801 150 1039.6833333333 150 C 1055.3766666666602 150 1063.22333333334 150 1078.9166666667 150 C 1094.6100000000201 150 1102.4566666666801 150 1118.15 150 C 1133.84333333332 150 1157.3833333333 150 1157.3833333333 150"
                            class="highcharts-graph highcharts-shadow" data-z-index="1" stroke="#0aaeff"
                            stroke-width="9" stroke-linejoin="round" stroke-linecap="round" stroke-opacity="0.025"
                            transform="translate(1, 1)"></path>
                        <path fill="none"
                            d="M 19.616666666667 150 C 19.616666666667 150 43.1566666666668 150 58.85 150 C 74.54333333333321 150 82.38999999999979 150 98.083333333333 150 C 113.77666666666778 150 121.62333333333518 150 137.31666666667 150 C 153.01000000000198 150 160.85666666666802 150 176.55 150 C 192.24333333333203 150 200.089999999998 150 215.78333333333 150 C 231.476666666666 150 239.323333333334 150 255.01666666667 150 C 270.71000000000197 150 278.55666666666804 150 294.25 150 C 309.94333333333196 150 317.78999999999803 150 333.48333333333 150 C 349.176666666666 150 357.023333333334 150 372.71666666667 150 C 388.410000000002 150 396.25666666666797 150 411.95 150 C 427.64333333333195 150 435.48999999999796 150 451.18333333333 150 C 466.876666666666 150 474.723333333334 150 490.41666666667 150 C 506.11000000000206 150 513.956666666668 150 529.65 150 C 545.343333333332 150 553.189999999998 150 568.88333333333 150 C 584.576666666666 150 592.423333333334 150 608.11666666667 150 C 623.810000000002 150 631.656666666668 150 647.35 150 C 663.0433333333319 150 670.8899999999979 150 686.58333333333 150 C 702.276666666666 150 710.1233333333339 150 725.81666666667 150 C 741.5100000000019 150 749.3566666666679 150 765.05 150 C 780.743333333332 150 788.589999999998 150 804.28333333333 150 C 819.9766666666659 150 827.823333333334 150 843.51666666667 150 C 859.2100000000021 150 867.056666666668 150 882.75 150 C 898.443333333332 150 906.2899999999979 150 921.98333333333 150 C 937.676666666666 150 945.5233333333341 150 961.21666666667 150 C 976.910000000002 150 984.756666666668 150 1000.45 150 C 1016.14333333332 150 1023.9899999999801 150 1039.6833333333 150 C 1055.3766666666602 150 1063.22333333334 150 1078.9166666667 150 C 1094.6100000000201 150 1102.4566666666801 150 1118.15 150 C 1133.84333333332 150 1157.3833333333 150 1157.3833333333 150"
                            class="highcharts-graph highcharts-shadow" data-z-index="1" stroke="#0aaeff"
                            stroke-width="7" stroke-linejoin="round" stroke-linecap="round" stroke-opacity="0.03125"
                            transform="translate(1, 1)"></path>
                        <path fill="none"
                            d="M 19.616666666667 150 C 19.616666666667 150 43.1566666666668 150 58.85 150 C 74.54333333333321 150 82.38999999999979 150 98.083333333333 150 C 113.77666666666778 150 121.62333333333518 150 137.31666666667 150 C 153.01000000000198 150 160.85666666666802 150 176.55 150 C 192.24333333333203 150 200.089999999998 150 215.78333333333 150 C 231.476666666666 150 239.323333333334 150 255.01666666667 150 C 270.71000000000197 150 278.55666666666804 150 294.25 150 C 309.94333333333196 150 317.78999999999803 150 333.48333333333 150 C 349.176666666666 150 357.023333333334 150 372.71666666667 150 C 388.410000000002 150 396.25666666666797 150 411.95 150 C 427.64333333333195 150 435.48999999999796 150 451.18333333333 150 C 466.876666666666 150 474.723333333334 150 490.41666666667 150 C 506.11000000000206 150 513.956666666668 150 529.65 150 C 545.343333333332 150 553.189999999998 150 568.88333333333 150 C 584.576666666666 150 592.423333333334 150 608.11666666667 150 C 623.810000000002 150 631.656666666668 150 647.35 150 C 663.0433333333319 150 670.8899999999979 150 686.58333333333 150 C 702.276666666666 150 710.1233333333339 150 725.81666666667 150 C 741.5100000000019 150 749.3566666666679 150 765.05 150 C 780.743333333332 150 788.589999999998 150 804.28333333333 150 C 819.9766666666659 150 827.823333333334 150 843.51666666667 150 C 859.2100000000021 150 867.056666666668 150 882.75 150 C 898.443333333332 150 906.2899999999979 150 921.98333333333 150 C 937.676666666666 150 945.5233333333341 150 961.21666666667 150 C 976.910000000002 150 984.756666666668 150 1000.45 150 C 1016.14333333332 150 1023.9899999999801 150 1039.6833333333 150 C 1055.3766666666602 150 1063.22333333334 150 1078.9166666667 150 C 1094.6100000000201 150 1102.4566666666801 150 1118.15 150 C 1133.84333333332 150 1157.3833333333 150 1157.3833333333 150"
                            class="highcharts-graph highcharts-shadow" data-z-index="1" stroke="#0aaeff"
                            stroke-width="5" stroke-linejoin="round" stroke-linecap="round"
                            stroke-opacity="0.037500000000000006" transform="translate(1, 1)"></path>
                        <path fill="none"
                            d="M 19.616666666667 150 C 19.616666666667 150 43.1566666666668 150 58.85 150 C 74.54333333333321 150 82.38999999999979 150 98.083333333333 150 C 113.77666666666778 150 121.62333333333518 150 137.31666666667 150 C 153.01000000000198 150 160.85666666666802 150 176.55 150 C 192.24333333333203 150 200.089999999998 150 215.78333333333 150 C 231.476666666666 150 239.323333333334 150 255.01666666667 150 C 270.71000000000197 150 278.55666666666804 150 294.25 150 C 309.94333333333196 150 317.78999999999803 150 333.48333333333 150 C 349.176666666666 150 357.023333333334 150 372.71666666667 150 C 388.410000000002 150 396.25666666666797 150 411.95 150 C 427.64333333333195 150 435.48999999999796 150 451.18333333333 150 C 466.876666666666 150 474.723333333334 150 490.41666666667 150 C 506.11000000000206 150 513.956666666668 150 529.65 150 C 545.343333333332 150 553.189999999998 150 568.88333333333 150 C 584.576666666666 150 592.423333333334 150 608.11666666667 150 C 623.810000000002 150 631.656666666668 150 647.35 150 C 663.0433333333319 150 670.8899999999979 150 686.58333333333 150 C 702.276666666666 150 710.1233333333339 150 725.81666666667 150 C 741.5100000000019 150 749.3566666666679 150 765.05 150 C 780.743333333332 150 788.589999999998 150 804.28333333333 150 C 819.9766666666659 150 827.823333333334 150 843.51666666667 150 C 859.2100000000021 150 867.056666666668 150 882.75 150 C 898.443333333332 150 906.2899999999979 150 921.98333333333 150 C 937.676666666666 150 945.5233333333341 150 961.21666666667 150 C 976.910000000002 150 984.756666666668 150 1000.45 150 C 1016.14333333332 150 1023.9899999999801 150 1039.6833333333 150 C 1055.3766666666602 150 1063.22333333334 150 1078.9166666667 150 C 1094.6100000000201 150 1102.4566666666801 150 1118.15 150 C 1133.84333333332 150 1157.3833333333 150 1157.3833333333 150"
                            class="highcharts-graph highcharts-shadow" data-z-index="1" stroke="#0aaeff"
                            stroke-width="3" stroke-linejoin="round" stroke-linecap="round"
                            stroke-opacity="0.043750000000000004" transform="translate(1, 1)"></path>
                        <path fill="none"
                            d="M 19.616666666667 150 C 19.616666666667 150 43.1566666666668 150 58.85 150 C 74.54333333333321 150 82.38999999999979 150 98.083333333333 150 C 113.77666666666778 150 121.62333333333518 150 137.31666666667 150 C 153.01000000000198 150 160.85666666666802 150 176.55 150 C 192.24333333333203 150 200.089999999998 150 215.78333333333 150 C 231.476666666666 150 239.323333333334 150 255.01666666667 150 C 270.71000000000197 150 278.55666666666804 150 294.25 150 C 309.94333333333196 150 317.78999999999803 150 333.48333333333 150 C 349.176666666666 150 357.023333333334 150 372.71666666667 150 C 388.410000000002 150 396.25666666666797 150 411.95 150 C 427.64333333333195 150 435.48999999999796 150 451.18333333333 150 C 466.876666666666 150 474.723333333334 150 490.41666666667 150 C 506.11000000000206 150 513.956666666668 150 529.65 150 C 545.343333333332 150 553.189999999998 150 568.88333333333 150 C 584.576666666666 150 592.423333333334 150 608.11666666667 150 C 623.810000000002 150 631.656666666668 150 647.35 150 C 663.0433333333319 150 670.8899999999979 150 686.58333333333 150 C 702.276666666666 150 710.1233333333339 150 725.81666666667 150 C 741.5100000000019 150 749.3566666666679 150 765.05 150 C 780.743333333332 150 788.589999999998 150 804.28333333333 150 C 819.9766666666659 150 827.823333333334 150 843.51666666667 150 C 859.2100000000021 150 867.056666666668 150 882.75 150 C 898.443333333332 150 906.2899999999979 150 921.98333333333 150 C 937.676666666666 150 945.5233333333341 150 961.21666666667 150 C 976.910000000002 150 984.756666666668 150 1000.45 150 C 1016.14333333332 150 1023.9899999999801 150 1039.6833333333 150 C 1055.3766666666602 150 1063.22333333334 150 1078.9166666667 150 C 1094.6100000000201 150 1102.4566666666801 150 1118.15 150 C 1133.84333333332 150 1157.3833333333 150 1157.3833333333 150"
                            class="highcharts-graph highcharts-shadow" data-z-index="1" stroke="#0aaeff"
                            stroke-width="1" stroke-linejoin="round" stroke-linecap="round" stroke-opacity="0.05"
                            transform="translate(1, 1)"></path>
                        <path fill="none"
                            d="M 19.616666666667 150 C 19.616666666667 150 43.1566666666668 150 58.85 150 C 74.54333333333321 150 82.38999999999979 150 98.083333333333 150 C 113.77666666666778 150 121.62333333333518 150 137.31666666667 150 C 153.01000000000198 150 160.85666666666802 150 176.55 150 C 192.24333333333203 150 200.089999999998 150 215.78333333333 150 C 231.476666666666 150 239.323333333334 150 255.01666666667 150 C 270.71000000000197 150 278.55666666666804 150 294.25 150 C 309.94333333333196 150 317.78999999999803 150 333.48333333333 150 C 349.176666666666 150 357.023333333334 150 372.71666666667 150 C 388.410000000002 150 396.25666666666797 150 411.95 150 C 427.64333333333195 150 435.48999999999796 150 451.18333333333 150 C 466.876666666666 150 474.723333333334 150 490.41666666667 150 C 506.11000000000206 150 513.956666666668 150 529.65 150 C 545.343333333332 150 553.189999999998 150 568.88333333333 150 C 584.576666666666 150 592.423333333334 150 608.11666666667 150 C 623.810000000002 150 631.656666666668 150 647.35 150 C 663.0433333333319 150 670.8899999999979 150 686.58333333333 150 C 702.276666666666 150 710.1233333333339 150 725.81666666667 150 C 741.5100000000019 150 749.3566666666679 150 765.05 150 C 780.743333333332 150 788.589999999998 150 804.28333333333 150 C 819.9766666666659 150 827.823333333334 150 843.51666666667 150 C 859.2100000000021 150 867.056666666668 150 882.75 150 C 898.443333333332 150 906.2899999999979 150 921.98333333333 150 C 937.676666666666 150 945.5233333333341 150 961.21666666667 150 C 976.910000000002 150 984.756666666668 150 1000.45 150 C 1016.14333333332 150 1023.9899999999801 150 1039.6833333333 150 C 1055.3766666666602 150 1063.22333333334 150 1078.9166666667 150 C 1094.6100000000201 150 1102.4566666666801 150 1118.15 150 C 1133.84333333332 150 1157.3833333333 150 1157.3833333333 150"
                            class="highcharts-graph" data-z-index="1" stroke="#00bfff" stroke-width="3"
                            stroke-linejoin="round" stroke-linecap="round"></path>
                        <path fill="none"
                            d="M 9.616666666667001 150 L 19.616666666667 150 C 19.616666666667 150 43.1566666666668 150 58.85 150 C 74.54333333333321 150 82.38999999999979 150 98.083333333333 150 C 113.77666666666778 150 121.62333333333518 150 137.31666666667 150 C 153.01000000000198 150 160.85666666666802 150 176.55 150 C 192.24333333333203 150 200.089999999998 150 215.78333333333 150 C 231.476666666666 150 239.323333333334 150 255.01666666667 150 C 270.71000000000197 150 278.55666666666804 150 294.25 150 C 309.94333333333196 150 317.78999999999803 150 333.48333333333 150 C 349.176666666666 150 357.023333333334 150 372.71666666667 150 C 388.410000000002 150 396.25666666666797 150 411.95 150 C 427.64333333333195 150 435.48999999999796 150 451.18333333333 150 C 466.876666666666 150 474.723333333334 150 490.41666666667 150 C 506.11000000000206 150 513.956666666668 150 529.65 150 C 545.343333333332 150 553.189999999998 150 568.88333333333 150 C 584.576666666666 150 592.423333333334 150 608.11666666667 150 C 623.810000000002 150 631.656666666668 150 647.35 150 C 663.0433333333319 150 670.8899999999979 150 686.58333333333 150 C 702.276666666666 150 710.1233333333339 150 725.81666666667 150 C 741.5100000000019 150 749.3566666666679 150 765.05 150 C 780.743333333332 150 788.589999999998 150 804.28333333333 150 C 819.9766666666659 150 827.823333333334 150 843.51666666667 150 C 859.2100000000021 150 867.056666666668 150 882.75 150 C 898.443333333332 150 906.2899999999979 150 921.98333333333 150 C 937.676666666666 150 945.5233333333341 150 961.21666666667 150 C 976.910000000002 150 984.756666666668 150 1000.45 150 C 1016.14333333332 150 1023.9899999999801 150 1039.6833333333 150 C 1055.3766666666602 150 1063.22333333334 150 1078.9166666667 150 C 1094.6100000000201 150 1102.4566666666801 150 1118.15 150 C 1133.84333333332 150 1157.3833333333 150 1157.3833333333 150 L 1167.3833333333 150"
                            visibility="visible" data-z-index="2" class="highcharts-tracker-line"
                            stroke-linejoin="round" stroke="rgba(192,192,192,0.0001)" stroke-width="22"></path>
                    </g>
                    <g data-z-index="0.1"
                        class="highcharts-markers highcharts-series-0 highcharts-area-series highcharts-tracker highcharts-series-hover"
                        transform="translate(0,0) scale(1 1)"></g>
                </g><text x="589" text-anchor="middle" class="highcharts-title" data-z-index="4"
                    style="color:#333333;font-size:18px;fill:#333333;" y="24"></text><text x="589" text-anchor="middle"
                    class="highcharts-subtitle" data-z-index="4" style="color:#666666;fill:#666666;" y="24"></text><text
                    x="10" text-anchor="start" class="highcharts-caption" data-z-index="4"
                    style="color:#666666;fill:#666666;" y="297"></text>
                <g class="highcharts-axis-labels highcharts-xaxis-labels" data-z-index="7"><text x="22.209391531017005"
                        style="color:#666666;cursor:default;font-size:11px;fill:#666666;" text-anchor="end"
                        transform="translate(0,0) rotate(-45 22.209391531017005 316)" y="316" opacity="1">
                        <tspan>По…</tspan>
                        <title>Понедельник, 27 января 2020 г.</title>
                    </text><text x="61.442724864351" style="color:#666666;cursor:default;font-size:11px;fill:#666666;"
                        text-anchor="end" transform="translate(0,0) rotate(-45 61.442724864351 316)" y="316"
                        opacity="1">
                        <tspan>Вторник, 28 ян…</tspan>
                        <title>Вторник, 28 января 2020 г.</title>
                    </text><text x="100.676058197684" style="color:#666666;cursor:default;font-size:11px;fill:#666666;"
                        text-anchor="end" transform="translate(0,0) rotate(-45 100.676058197684 316)" y="316"
                        opacity="1">
                        <tspan>Среда, 29 январ…</tspan>
                        <title>Среда, 29 января 2020 г.</title>
                    </text><text x="139.90939153101402"
                        style="color:#666666;cursor:default;font-size:11px;fill:#666666;" text-anchor="end"
                        transform="translate(0,0) rotate(-45 139.90939153101402 316)" y="316" opacity="1">
                        <tspan>Четверг, 30 янва…</tspan>
                        <title>Четверг, 30 января 2020 г.</title>
                    </text><text x="179.14272486435402"
                        style="color:#666666;cursor:default;font-size:11px;fill:#666666;" text-anchor="end"
                        transform="translate(0,0) rotate(-45 179.14272486435402 316)" y="316" opacity="1">
                        <tspan>Пятница, 31 янв…</tspan>
                        <title>Пятница, 31 января 2020 г.</title>
                    </text><text x="218.37605819768402"
                        style="color:#666666;cursor:default;font-size:11px;fill:#666666;" text-anchor="end"
                        transform="translate(0,0) rotate(-45 218.37605819768402 316)" y="316" opacity="1">
                        <tspan>Суббота, 1 февр…</tspan>
                        <title>Суббота, 1 февраля 2020 г.</title>
                    </text><text x="257.60939153101396"
                        style="color:#666666;cursor:default;font-size:11px;fill:#666666;" text-anchor="end"
                        transform="translate(0,0) rotate(-45 257.60939153101396 316)" y="316" opacity="1">
                        <tspan>Воскресенье, 2 …</tspan>
                        <title>Воскресенье, 2 февраля 2020 г.</title>
                    </text><text x="296.842724864354" style="color:#666666;cursor:default;font-size:11px;fill:#666666;"
                        text-anchor="end" transform="translate(0,0) rotate(-45 296.842724864354 316)" y="316"
                        opacity="1">
                        <tspan>Понедельник, 3 …</tspan>
                        <title>Понедельник, 3 февраля 2020 г.</title>
                    </text><text x="336.076058197684" style="color:#666666;cursor:default;font-size:11px;fill:#666666;"
                        text-anchor="end" transform="translate(0,0) rotate(-45 336.076058197684 316)" y="316"
                        opacity="1">
                        <tspan>Вторник, 4 февр…</tspan>
                        <title>Вторник, 4 февраля 2020 г.</title>
                    </text><text x="375.309391531014" style="color:#666666;cursor:default;font-size:11px;fill:#666666;"
                        text-anchor="end" transform="translate(0,0) rotate(-45 375.309391531014 316)" y="316"
                        opacity="1">
                        <tspan>Среда, 5 феврал…</tspan>
                        <title>Среда, 5 февраля 2020 г.</title>
                    </text><text x="414.542724864354" style="color:#666666;cursor:default;font-size:11px;fill:#666666;"
                        text-anchor="end" transform="translate(0,0) rotate(-45 414.542724864354 316)" y="316"
                        opacity="1">
                        <tspan>Четверг, 6 февра…</tspan>
                        <title>Четверг, 6 февраля 2020 г.</title>
                    </text><text x="453.776058197684" style="color:#666666;cursor:default;font-size:11px;fill:#666666;"
                        text-anchor="end" transform="translate(0,0) rotate(-45 453.776058197684 316)" y="316"
                        opacity="1">
                        <tspan>Пятница, 7 февр…</tspan>
                        <title>Пятница, 7 февраля 2020 г.</title>
                    </text><text x="493.009391531014" style="color:#666666;cursor:default;font-size:11px;fill:#666666;"
                        text-anchor="end" transform="translate(0,0) rotate(-45 493.009391531014 316)" y="316"
                        opacity="1">
                        <tspan>Суббота, 8 февр…</tspan>
                        <title>Суббота, 8 февраля 2020 г.</title>
                    </text><text x="532.2427248643539" style="color:#666666;cursor:default;font-size:11px;fill:#666666;"
                        text-anchor="end" transform="translate(0,0) rotate(-45 532.2427248643539 316)" y="316"
                        opacity="1">
                        <tspan>Воскресенье, 9 …</tspan>
                        <title>Воскресенье, 9 февраля 2020 г.</title>
                    </text><text x="571.476058197684" style="color:#666666;cursor:default;font-size:11px;fill:#666666;"
                        text-anchor="end" transform="translate(0,0) rotate(-45 571.476058197684 316)" y="316"
                        opacity="1">
                        <tspan>Понедельник, 10…</tspan>
                        <title>Понедельник, 10 февраля 2020 г.</title>
                    </text><text x="610.709391531014" style="color:#666666;cursor:default;font-size:11px;fill:#666666;"
                        text-anchor="end" transform="translate(0,0) rotate(-45 610.709391531014 316)" y="316"
                        opacity="1">
                        <tspan>Вторник, 11 фев…</tspan>
                        <title>Вторник, 11 февраля 2020 г.</title>
                    </text><text x="649.942724864354" style="color:#666666;cursor:default;font-size:11px;fill:#666666;"
                        text-anchor="end" transform="translate(0,0) rotate(-45 649.942724864354 316)" y="316"
                        opacity="1">
                        <tspan>Среда, 12 февра…</tspan>
                        <title>Среда, 12 февраля 2020 г.</title>
                    </text><text x="689.176058197684" style="color:#666666;cursor:default;font-size:11px;fill:#666666;"
                        text-anchor="end" transform="translate(0,0) rotate(-45 689.176058197684 316)" y="316"
                        opacity="1">
                        <tspan>Четверг, 13 февр…</tspan>
                        <title>Четверг, 13 февраля 2020 г.</title>
                    </text><text x="728.409391531014" style="color:#666666;cursor:default;font-size:11px;fill:#666666;"
                        text-anchor="end" transform="translate(0,0) rotate(-45 728.409391531014 316)" y="316"
                        opacity="1">
                        <tspan>Пятница, 14 фев…</tspan>
                        <title>Пятница, 14 февраля 2020 г.</title>
                    </text><text x="767.642724864354" style="color:#666666;cursor:default;font-size:11px;fill:#666666;"
                        text-anchor="end" transform="translate(0,0) rotate(-45 767.642724864354 316)" y="316"
                        opacity="1">
                        <tspan>Суббота, 15 фев…</tspan>
                        <title>Суббота, 15 февраля 2020 г.</title>
                    </text><text x="806.876058197684" style="color:#666666;cursor:default;font-size:11px;fill:#666666;"
                        text-anchor="end" transform="translate(0,0) rotate(-45 806.876058197684 316)" y="316"
                        opacity="1">
                        <tspan>Воскресенье, 16 …</tspan>
                        <title>Воскресенье, 16 февраля 2020 г.</title>
                    </text><text x="846.109391531014" style="color:#666666;cursor:default;font-size:11px;fill:#666666;"
                        text-anchor="end" transform="translate(0,0) rotate(-45 846.109391531014 316)" y="316"
                        opacity="1">
                        <tspan>Понедельник, 17…</tspan>
                        <title>Понедельник, 17 февраля 2020 г.</title>
                    </text><text x="885.342724864354" style="color:#666666;cursor:default;font-size:11px;fill:#666666;"
                        text-anchor="end" transform="translate(0,0) rotate(-45 885.342724864354 316)" y="316"
                        opacity="1">
                        <tspan>Вторник, 18 фев…</tspan>
                        <title>Вторник, 18 февраля 2020 г.</title>
                    </text><text x="924.576058197684" style="color:#666666;cursor:default;font-size:11px;fill:#666666;"
                        text-anchor="end" transform="translate(0,0) rotate(-45 924.576058197684 316)" y="316"
                        opacity="1">
                        <tspan>Среда, 19 февра…</tspan>
                        <title>Среда, 19 февраля 2020 г.</title>
                    </text><text x="963.809391531014" style="color:#666666;cursor:default;font-size:11px;fill:#666666;"
                        text-anchor="end" transform="translate(0,0) rotate(-45 963.809391531014 316)" y="316"
                        opacity="1">
                        <tspan>Четверг, 20 февр…</tspan>
                        <title>Четверг, 20 февраля 2020 г.</title>
                    </text><text x="1003.042724864384" style="color:#666666;cursor:default;font-size:11px;fill:#666666;"
                        text-anchor="end" transform="translate(0,0) rotate(-45 1003.042724864384 316)" y="316"
                        opacity="1">
                        <tspan>Пятница, 21 фев…</tspan>
                        <title>Пятница, 21 февраля 2020 г.</title>
                    </text><text x="1042.276058197684" style="color:#666666;cursor:default;font-size:11px;fill:#666666;"
                        text-anchor="end" transform="translate(0,0) rotate(-45 1042.276058197684 316)" y="316"
                        opacity="1">
                        <tspan>Суббота, 22 фев…</tspan>
                        <title>Суббота, 22 февраля 2020 г.</title>
                    </text><text x="1081.5093915309842"
                        style="color:#666666;cursor:default;font-size:11px;fill:#666666;" text-anchor="end"
                        transform="translate(0,0) rotate(-45 1081.5093915309842 316)" y="316" opacity="1">
                        <tspan>Воскресенье, 23 …</tspan>
                        <title>Воскресенье, 23 февраля 2020 г.</title>
                    </text><text x="1120.7427248643842"
                        style="color:#666666;cursor:default;font-size:11px;fill:#666666;" text-anchor="end"
                        transform="translate(0,0) rotate(-45 1120.7427248643842 316)" y="316" opacity="1">
                        <tspan>Понедельник, 24…</tspan>
                        <title>Понедельник, 24 февраля 2020 г.</title>
                    </text><text x="1159.976058197684" style="color:#666666;cursor:default;font-size:11px;fill:#666666;"
                        text-anchor="end" transform="translate(0,0) rotate(-45 1159.976058197684 316)" y="316"
                        opacity="1">
                        <tspan>Вторник, 25 фев…</tspan>
                        <title>Вторник, 25 февраля 2020 г.</title>
                    </text></g>
                <g class="highcharts-label highcharts-tooltip highcharts-color-undefined"
                    style="pointer-events:none;white-space:nowrap;" data-z-index="8" transform="translate(140,84)"
                    opacity="1" visibility="visible">
                    <path fill="none" class="highcharts-label-box highcharts-tooltip-box highcharts-shadow"
                        d="M 7 0 L 145 0 C 152 0 152 0 152 7 L 152 43 C 152 50 152 50 145 50 L 82 50 76 56 70 50 7 50 C 0 50 0 50 0 43 L 0 7 C 0 0 0 0 7 0"
                        stroke="#000000" stroke-opacity="0.049999999999999996" stroke-width="5"
                        transform="translate(1, 1)"></path>
                    <path fill="none" class="highcharts-label-box highcharts-tooltip-box highcharts-shadow"
                        d="M 7 0 L 145 0 C 152 0 152 0 152 7 L 152 43 C 152 50 152 50 145 50 L 82 50 76 56 70 50 7 50 C 0 50 0 50 0 43 L 0 7 C 0 0 0 0 7 0"
                        stroke="#000000" stroke-opacity="0.09999999999999999" stroke-width="3"
                        transform="translate(1, 1)"></path>
                    <path fill="none" class="highcharts-label-box highcharts-tooltip-box highcharts-shadow"
                        d="M 7 0 L 145 0 C 152 0 152 0 152 7 L 152 43 C 152 50 152 50 145 50 L 82 50 76 56 70 50 7 50 C 0 50 0 50 0 43 L 0 7 C 0 0 0 0 7 0"
                        stroke="#000000" stroke-opacity="0.15" stroke-width="1" transform="translate(1, 1)"></path>
                    <path fill="rgba(247,247,247,0.85)" class="highcharts-label-box highcharts-tooltip-box"
                        d="M 7 0 L 145 0 C 152 0 152 0 152 7 L 152 43 C 152 50 152 50 145 50 L 82 50 76 56 70 50 7 50 C 0 50 0 50 0 43 L 0 7 C 0 0 0 0 7 0">
                    </path>
                </g>
            </svg>