<svg width="11" height="11" viewBox="0 0 11 11" fill="none" xmlns="http://www.w3.org/2000/svg">
    <path d="M5.5 0C2.46263 0 0 2.46263 0 5.5C0 8.53738 2.46263 11 5.5 11C8.53738 11 11 8.53738 11 5.5C11 2.46263 8.53738 0 5.5 0ZM5.04167 2.29167H5.95833V6.875H5.04167V2.29167ZM5.5 8.82292C5.18375 8.82292 4.92708 8.56625 4.92708 8.25C4.92708 7.93375 5.18375 7.67708 5.5 7.67708C5.81625 7.67708 6.07292 7.93375 6.07292 8.25C6.07292 8.56625 5.81625 8.82292 5.5 8.82292Z"
          fill="#FF9B06" fill-opacity="0.728"/>
</svg>
