<svg width="109" height="51" viewBox="0 0 109 51" fill="none" xmlns="http://www.w3.org/2000/svg">
<g filter="url(#filter0_d)">
<path d="M29.957 34H26.4414L19.5977 22.7734V34H16.082V16.9375H19.5977L26.4531 28.1875V16.9375H29.957V34ZM47.043 25.8555C47.043 27.5352 46.7461 29.0078 46.1523 30.2734C45.5586 31.5391 44.707 32.5156 43.5977 33.2031C42.4961 33.8906 41.2305 34.2344 39.8008 34.2344C38.3867 34.2344 37.125 33.8945 36.0156 33.2148C34.9062 32.5352 34.0469 31.5664 33.4375 30.3086C32.8281 29.043 32.5195 27.5898 32.5117 25.9492V25.1055C32.5117 23.4258 32.8125 21.9492 33.4141 20.6758C34.0234 19.3945 34.8789 18.4141 35.9805 17.7344C37.0898 17.0469 38.3555 16.7031 39.7773 16.7031C41.1992 16.7031 42.4609 17.0469 43.5625 17.7344C44.6719 18.4141 45.5273 19.3945 46.1289 20.6758C46.7383 21.9492 47.043 23.4219 47.043 25.0938V25.8555ZM43.4805 25.082C43.4805 23.293 43.1602 21.9336 42.5195 21.0039C41.8789 20.0742 40.9648 19.6094 39.7773 19.6094C38.5977 19.6094 37.6875 20.0703 37.0469 20.9922C36.4062 21.9062 36.082 23.25 36.0742 25.0234V25.8555C36.0742 27.5977 36.3945 28.9492 37.0352 29.9102C37.6758 30.8711 38.5977 31.3516 39.8008 31.3516C40.9805 31.3516 41.8867 30.8906 42.5195 29.9688C43.1523 29.0391 43.4727 27.6875 43.4805 25.9141V25.082Z" fill="white"/>
<path d="M49.5977 34V16.9375H54.8477C56.3477 16.9375 57.6875 17.2773 58.8672 17.957C60.0547 18.6289 60.9805 19.5898 61.6445 20.8398C62.3086 22.082 62.6406 23.4961 62.6406 25.082V25.8672C62.6406 27.4531 62.3125 28.8633 61.6562 30.0977C61.0078 31.332 60.0898 32.2891 58.9023 32.9688C57.7148 33.6484 56.375 33.9922 54.8828 34H49.5977ZM53.1133 19.7852V31.1758H54.8125C56.1875 31.1758 57.2383 30.7266 57.9648 29.8281C58.6914 28.9297 59.0625 27.6445 59.0781 25.9727V25.0703C59.0781 23.3359 58.7188 22.0234 58 21.1328C57.2812 20.2344 56.2305 19.7852 54.8477 19.7852H53.1133ZM75.4727 26.6055H68.7227V31.1758H76.6445V34H65.207V16.9375H76.6211V19.7852H68.7227V23.8516H75.4727V26.6055ZM84.8125 22.8203L88.0117 16.9375H92.0547L87.0859 25.3984L92.1836 34H88.0938L84.8125 28.0234L81.5312 34H77.4414L82.5391 25.3984L77.5703 16.9375H81.6133L84.8125 22.8203Z" fill="url(#paint0_linear)"/>
</g>
<defs>
<filter id="filter0_d" x="0.0820312" y="0.703125" width="108.102" height="49.5312" filterUnits="userSpaceOnUse" color-interpolation-filters="sRGB">
<feFlood flood-opacity="0" result="BackgroundImageFix"/>
<feColorMatrix in="SourceAlpha" type="matrix" values="0 0 0 0 0 0 0 0 0 0 0 0 0 0 0 0 0 0 127 0"/>
<feOffset/>
<feGaussianBlur stdDeviation="8"/>
<feColorMatrix type="matrix" values="0 0 0 0 0.254902 0 0 0 0 0.321569 0 0 0 0 1 0 0 0 0.2 0"/>
<feBlend mode="normal" in2="BackgroundImageFix" result="effect1_dropShadow"/>
<feBlend mode="normal" in="SourceGraphic" in2="effect1_dropShadow" result="shape"/>
</filter>
<linearGradient id="paint0_linear" x1="125.256" y1="-12.5517" x2="22.399" y2="90.5202" gradientUnits="userSpaceOnUse">
<stop stop-color="#1EC9AA"/>
<stop offset="1" stop-color="#1D90D0"/>
</linearGradient>
</defs>
</svg>
